<svg xmlns="http://www.w3.org/2000/svg" viewBox="0 0 137.29 68.27"><defs><style>.a{fill:#b0e2fc;}</style></defs><path class="a" d="M135.71,68.27H118.78a1.58,1.58,0,0,1-1.58-1.58V10a10.05,10.05,0,0,1,10-10,10.07,10.07,0,0,1,10,10V66.69A1.58,1.58,0,0,1,135.71,68.27Zm-15.35-3.16h13.77V10a6.91,6.91,0,0,0-6.88-6.89A6.9,6.9,0,0,0,120.36,10Z"/><path class="a" d="M30.88,29.2H18.51a1.58,1.58,0,0,1-1.58-1.58V18.51a1.58,1.58,0,0,1,1.58-1.58H30.88a1.58,1.58,0,0,1,1.58,1.58v9.11A1.58,1.58,0,0,1,30.88,29.2Zm-10.8-3.15H29.3v-6H20.08Z"/><path class="a" d="M60.18,29.2H47.81a1.58,1.58,0,0,1-1.58-1.58V18.51a1.58,1.58,0,0,1,1.58-1.58H60.18a1.58,1.58,0,0,1,1.58,1.58v9.11A1.58,1.58,0,0,1,60.18,29.2Zm-10.8-3.15H58.6v-6H49.38Z"/><path class="a" d="M89.48,29.2H77.11a1.58,1.58,0,0,1-1.58-1.58V18.51a1.58,1.58,0,0,1,1.58-1.58H89.48a1.58,1.58,0,0,1,1.58,1.58v9.11A1.58,1.58,0,0,1,89.48,29.2ZM78.69,26.05H87.9v-6H78.69Z"/><path class="a" d="M118.78,29.2H106.41a1.58,1.58,0,0,1-1.58-1.58V18.51a1.58,1.58,0,0,1,1.58-1.58h12.37a1.58,1.58,0,0,1,1.58,1.58v9.11A1.58,1.58,0,0,1,118.78,29.2ZM108,26.05h9.21v-6H108Z"/><path class="a" d="M30.88,51.34H18.51a1.58,1.58,0,0,1-1.58-1.58V40.64a1.57,1.57,0,0,1,1.58-1.57H30.88a1.57,1.57,0,0,1,1.58,1.57v9.12A1.58,1.58,0,0,1,30.88,51.34Zm-10.8-3.16H29.3v-6H20.08Z"/><path class="a" d="M60.18,51.34H47.81a1.58,1.58,0,0,1-1.58-1.58V40.64a1.57,1.57,0,0,1,1.58-1.57H60.18a1.57,1.57,0,0,1,1.58,1.57v9.12A1.58,1.58,0,0,1,60.18,51.34Zm-10.8-3.16H58.6v-6H49.38Z"/><path class="a" d="M89.48,51.34H77.11a1.58,1.58,0,0,1-1.58-1.58V40.64a1.57,1.57,0,0,1,1.58-1.57H89.48a1.57,1.57,0,0,1,1.58,1.57v9.12A1.58,1.58,0,0,1,89.48,51.34ZM78.69,48.18H87.9v-6H78.69Z"/><path class="a" d="M118.78,51.34H106.41a1.58,1.58,0,0,1-1.58-1.58V40.64a1.57,1.57,0,0,1,1.58-1.57h12.37a1.57,1.57,0,0,1,1.58,1.57v9.12A1.58,1.58,0,0,1,118.78,51.34ZM108,48.18h9.21v-6H108Z"/><path class="a" d="M18.51,68.27H1.58A1.58,1.58,0,0,1,0,66.69V10A10,10,0,0,1,10,0a10.05,10.05,0,0,1,10,10V66.69A1.57,1.57,0,0,1,18.51,68.27ZM3.15,65.11H16.93V10A6.91,6.91,0,0,0,10,3.15,6.9,6.9,0,0,0,3.15,10Z"/><path class="a" d="M47.81,68.27H30.88a1.58,1.58,0,0,1-1.58-1.58V10a10.05,10.05,0,0,1,10-10,10.05,10.05,0,0,1,10,10V66.69A1.57,1.57,0,0,1,47.81,68.27ZM32.46,65.11H46.23V10a6.91,6.91,0,0,0-6.89-6.89A6.89,6.89,0,0,0,32.46,10Z"/><path class="a" d="M77.11,68.27H60.18a1.58,1.58,0,0,1-1.58-1.58V10a10.05,10.05,0,0,1,10-10,10.07,10.07,0,0,1,10,10V66.69A1.58,1.58,0,0,1,77.11,68.27ZM61.76,65.11H75.53V10a6.91,6.91,0,0,0-6.89-6.89A6.89,6.89,0,0,0,61.76,10Z"/><path class="a" d="M106.41,68.27H89.48a1.58,1.58,0,0,1-1.58-1.58V10a10.05,10.05,0,0,1,10-10,10.07,10.07,0,0,1,10,10V66.69A1.58,1.58,0,0,1,106.41,68.27ZM91.06,65.11h13.77V10a6.91,6.91,0,0,0-6.89-6.89A6.89,6.89,0,0,0,91.06,10Z"/></svg>