<svg xmlns="http://www.w3.org/2000/svg" viewBox="0 0 137.29 102.96"><defs><style>.a{fill:#b0e2fc;}</style></defs><path class="a" d="M135.69,50.26a1.63,1.63,0,0,1-1.11-.44A72.35,72.35,0,0,0,112.45,35.7a1.6,1.6,0,1,1,1.25-2.94,75.58,75.58,0,0,1,23.1,14.75,1.61,1.61,0,0,1,0,2.26A1.57,1.57,0,0,1,135.69,50.26Z"/><path class="a" d="M1.6,50.26a1.57,1.57,0,0,1-1.15-.49,1.59,1.59,0,0,1,0-2.26C15.75,32.83,41.23,24.06,68.64,24.06a124.69,124.69,0,0,1,13.5.72A1.6,1.6,0,0,1,81.79,28a120.78,120.78,0,0,0-13.15-.7C42,27.26,17.38,35.69,2.7,49.82A1.6,1.6,0,0,1,1.6,50.26Z"/><path class="a" d="M56,103a1.27,1.27,0,0,1-.28,0,1.6,1.6,0,0,1-1.3-1.85c1.13-6.4-2.55-9.23-8.12-13.52-5-3.88-11.34-8.72-15.78-17.94C18.83,45.27,48.5,26,48.8,25.76a1.6,1.6,0,0,1,1.72,2.69c-.28.18-27.58,18-17.09,39.79,4.11,8.54,9.81,12.93,14.85,16.8,5.78,4.45,10.78,8.3,9.32,16.6A1.59,1.59,0,0,1,56,103Z"/><path class="a" d="M95.35,103h-.11a1.6,1.6,0,0,1-1.49-1.62c0-.32-1-8.8-28.2-31.17-9.29-7.64-13.84-15.72-13.5-24C52.56,33.54,64.23,25.29,64.73,25a1.6,1.6,0,1,1,1.82,2.62h0c-.11.08-10.88,7.72-11.31,18.75C55,53.54,59.11,60.73,67.58,67.7c29.12,24,29.42,32.84,29.36,33.77A1.6,1.6,0,0,1,95.35,103Z"/><path class="a" d="M76.47,98.71a1.58,1.58,0,0,1-1.47-1,28.32,28.32,0,0,0-4.39-7,1.6,1.6,0,0,1,2.47-2A31.56,31.56,0,0,1,78,96.5a1.6,1.6,0,0,1-1.48,2.21ZM63.41,83.19a1.63,1.63,0,0,1-1-.34A80.72,80.72,0,0,0,55.49,78l-.05,0A1.59,1.59,0,0,1,57,75.17l.06,0,.1,0a87.86,87.86,0,0,1,7.23,5.09,1.6,1.6,0,0,1-1,2.85ZM47,71a1.6,1.6,0,0,1-1.2-.54,22.77,22.77,0,0,1-4.74-8.08,1.6,1.6,0,1,1,3-1,19.66,19.66,0,0,0,4.09,7A1.59,1.59,0,0,1,47,71Zm-4.7-19.08a1.61,1.61,0,0,1-.37,0A1.59,1.59,0,0,1,40.77,50a36.39,36.39,0,0,1,3.3-8.56,1.6,1.6,0,0,1,2.83,1.49,33,33,0,0,0-3,7.8A1.6,1.6,0,0,1,42.32,51.92Zm9.76-17.85a1.58,1.58,0,0,1-1-.37,1.6,1.6,0,0,1-.21-2.25,64.33,64.33,0,0,1,6.25-6.56,1.6,1.6,0,0,1,2.11,2.4,61.09,61.09,0,0,0-5.9,6.21A1.63,1.63,0,0,1,52.08,34.07Z"/><path class="a" d="M97.64,52.12C88,52.12,80.2,41.92,80.2,29.39S88,6.67,97.64,6.67s17.45,10.19,17.45,22.72S107.26,52.12,97.64,52.12Zm0-42.26c-7.85,0-14.24,8.76-14.24,19.53s6.39,19.53,14.24,19.53,14.25-8.76,14.25-19.53S105.5,9.86,97.64,9.86Z"/><path class="a" d="M97.06,70.41a1.6,1.6,0,0,1-1.6-1.59V39.12a1.6,1.6,0,1,1,3.2,0v29.7A1.6,1.6,0,0,1,97.06,70.41Z"/><path class="a" d="M20.75,30.71c-6.57,0-11.91-6.89-11.91-15.36S14.18,0,20.75,0,32.67,6.89,32.67,15.35,27.32,30.71,20.75,30.71Zm0-27.52C15.94,3.19,12,8.65,12,15.35s3.91,12.16,8.72,12.16,8.72-5.45,8.72-12.16S25.56,3.19,20.75,3.19Z"/><path class="a" d="M20.37,42.62a1.6,1.6,0,0,1-1.6-1.6V21.68a1.6,1.6,0,0,1,3.2,0V41A1.6,1.6,0,0,1,20.37,42.62Z"/></svg>