<svg xmlns="http://www.w3.org/2000/svg" viewBox="0 0 137.82 63.43"><defs><style>.a{fill:#b0e2fc;}</style></defs><path class="a" d="M136.24,63.43H1.58a1.58,1.58,0,1,1,0-3.15H136.24a1.58,1.58,0,1,1,0,3.15Z"/><path class="a" d="M124.37,51.91c-5.4,0-9.8-5.63-9.8-12.54s4.4-12.54,9.8-12.54,9.79,5.63,9.79,12.54S129.77,51.91,124.37,51.91Zm0-21.92c-3.67,0-6.65,4.21-6.65,9.38s3,9.38,6.65,9.38S131,44.54,131,39.37,128,30,124.37,30Z"/><path class="a" d="M106.75,63.43h-52a1.59,1.59,0,0,1-1.58-1.59l.36-34.23A1.59,1.59,0,0,1,54,26.52L79.79.47A1.62,1.62,0,0,1,82,.47l25.84,26.05a1.57,1.57,0,0,1,.45,1.11V61.85A1.57,1.57,0,0,1,106.75,63.43ZM56.31,60.28h48.86v-32L80.91,3.82,56.64,28.28Z"/><path class="a" d="M80.73,36a7.06,7.06,0,1,1,7.06-7A7.06,7.06,0,0,1,80.73,36Zm0-11A3.91,3.91,0,1,0,84.63,29,3.91,3.91,0,0,0,80.73,25.07Z"/><path class="a" d="M80.73,63.43a1.58,1.58,0,0,1-1.58-1.58V46.45a1.58,1.58,0,1,1,3.16,0v15.4A1.58,1.58,0,0,1,80.73,63.43Z"/><path class="a" d="M124.57,63.43A1.58,1.58,0,0,1,123,61.85V46.45a1.58,1.58,0,1,1,3.15,0v15.4A1.57,1.57,0,0,1,124.57,63.43Z"/><path class="a" d="M55.07,29.21H14.27a1.58,1.58,0,0,1-1-2.79L44.31.37a1.55,1.55,0,0,1,1-.37H80.91a1.56,1.56,0,0,1,1.45,1A1.57,1.57,0,0,1,82,2.69L56.19,28.74A1.58,1.58,0,0,1,55.07,29.21ZM18.61,26.05h35.8L77.12,3.15H45.9Z"/><path class="a" d="M54.77,63.43h0a1.57,1.57,0,0,1-1.56-1.59l.3-32.64H15.85l0,32.66a1.58,1.58,0,0,1-1.58,1.57h0a1.58,1.58,0,0,1-1.58-1.58l.06-34.23a1.57,1.57,0,0,1,1.57-1.57H55.08a1.59,1.59,0,0,1,1.58,1.59l-.31,34.23A1.58,1.58,0,0,1,54.77,63.43Z"/></svg>