<svg xmlns="http://www.w3.org/2000/svg" viewBox="0 0 13.05 13.047">
  <defs>
    <style>
      .cls-1 {
        fill: #002d46;
      }
    </style>
  </defs>
  <g id="Layer_2" data-name="Layer 2">
    <g id="Layer_1-2" data-name="Layer 1">
      <path id="Icon_awesome-instagram" data-name="Icon awesome-instagram" class="cls-1" d="M6.526,3.178a3.34,3.34,0,1,0,.012,0Zm0,5.52A2.175,2.175,0,1,1,8.7,6.522v0A2.178,2.178,0,0,1,6.525,8.7Zm4.262-5.656a.78.78,0,1,1-.78-.78h0a.777.777,0,0,1,.78.776ZM13,3.834A3.859,3.859,0,0,0,11.95,1.1,3.894,3.894,0,0,0,9.216.046C8.139-.015,4.91-.015,3.833.046A3.875,3.875,0,0,0,1.1,1.1,3.875,3.875,0,0,0,.046,3.831c-.061,1.077-.061,4.305,0,5.383A3.851,3.851,0,0,0,1.1,11.947,3.892,3.892,0,0,0,3.834,13c1.077.062,4.305.062,5.383,0a3.848,3.848,0,0,0,2.733-1.054A3.89,3.89,0,0,0,13,9.214c.061-1.078.061-4.3,0-5.38Zm-1.392,6.535a2.2,2.2,0,0,1-1.24,1.24,14.368,14.368,0,0,1-3.846.262,14.476,14.476,0,0,1-3.845-.262,2.2,2.2,0,0,1-1.24-1.24,14.364,14.364,0,0,1-.262-3.845,14.481,14.481,0,0,1,.262-3.846A2.2,2.2,0,0,1,2.68,1.438a14.371,14.371,0,0,1,3.846-.262,14.481,14.481,0,0,1,3.846.262,2.2,2.2,0,0,1,1.24,1.24,14.4,14.4,0,0,1,.262,3.845A14.351,14.351,0,0,1,11.612,10.369Z"/>
    </g>
  </g>
</svg>
