<svg xmlns="http://www.w3.org/2000/svg" viewBox="0 0 13.044 13.042">
  <defs>
    <style>
      .cls-1 {
        fill: #002d46;
      }
    </style>
  </defs>
  <g id="Layer_2" data-name="Layer 2">
    <g id="Layer_1-2" data-name="Layer 1">
      <path id="Icon_awesome-linkedin" data-name="Icon awesome-linkedin" class="cls-1" d="M12.111,0H.929A.936.936,0,0,0,0,.94V12.1a.935.935,0,0,0,.929.94H12.112a.937.937,0,0,0,.932-.94V.94A.938.938,0,0,0,12.111,0ZM3.942,11.179H2.007V4.954H3.943v6.225ZM2.975,4.106A1.121,1.121,0,1,1,4.1,2.985h0a1.121,1.121,0,0,1-1.121,1.12Zm8.213,7.073H9.255V8.152c0-.722-.015-1.65-1-1.65-1.008,0-1.162.786-1.162,1.6v3.08H5.156V4.954H7.01v.851h.026a2.035,2.035,0,0,1,1.831-1c1.956,0,2.32,1.29,2.32,2.966Z"/>
    </g>
  </g>
</svg>
