<svg xmlns="http://www.w3.org/2000/svg" viewBox="0 0 35.084 35.084">
  <defs>
    <style>
      .cls-1 {
        fill: #0581c5;
      }
    </style>
  </defs>
  <g id="Layer_2" data-name="Layer 2">
    <g id="Layer_1-2" data-name="Layer 1">
      <path id="Icon_material-call" data-name="Icon material-call" class="cls-1" d="M7.056,15.185A29.528,29.528,0,0,0,19.9,28.031l4.288-4.288a1.938,1.938,0,0,1,1.988-.468,22.232,22.232,0,0,0,6.959,1.111,1.955,1.955,0,0,1,1.949,1.949v6.8a1.955,1.955,0,0,1-1.949,1.949A33.135,33.135,0,0,1,0,1.949H0A1.955,1.955,0,0,1,1.949,0H8.772a1.955,1.955,0,0,1,1.949,1.949,22.169,22.169,0,0,0,1.111,6.959,1.955,1.955,0,0,1-.487,1.988Z"/>
    </g>
  </g>
</svg>
