<svg xmlns="http://www.w3.org/2000/svg" viewBox="0 0 134.41 109.73"><defs><style>.a{fill:#b0e2fc;}</style></defs><path class="a" d="M132.83,103.17a1.58,1.58,0,0,1-1.58-1.58V60H79.38a1.58,1.58,0,1,1,0-3.15h53.45a1.58,1.58,0,0,1,1.58,1.58v43.12A1.58,1.58,0,0,1,132.83,103.17Z"/><path class="a" d="M61.42,60H1.58a1.58,1.58,0,1,1,0-3.15H61.42a1.58,1.58,0,1,1,0,3.15Z"/><path class="a" d="M19.05,103.17a1.57,1.57,0,0,1-1.57-1.58v-28H1.58a1.58,1.58,0,0,1,0-3.16H19.05A1.58,1.58,0,0,1,20.63,72v29.58A1.58,1.58,0,0,1,19.05,103.17Z"/><path class="a" d="M116.58,103.17a1.58,1.58,0,0,1-1.58-1.58v-28H36.88v28a1.58,1.58,0,1,1-3.15,0V72a1.58,1.58,0,0,1,1.58-1.58h81.27A1.58,1.58,0,0,1,118.16,72v29.58A1.58,1.58,0,0,1,116.58,103.17Z"/><path class="a" d="M79.38,60a1.57,1.57,0,0,1-1.57-1.57V45.8a1.57,1.57,0,0,1,1.57-1.58H99.89V1.58a1.58,1.58,0,1,1,3.15,0V45.8a1.58,1.58,0,0,1-1.58,1.58H81V58.47A1.57,1.57,0,0,1,79.38,60Z"/><path class="a" d="M37.22,47.38H17a1.57,1.57,0,0,1-1.57-1.6l.14-13.33A1.58,1.58,0,0,1,16,31.36L26,21.22a1.62,1.62,0,0,1,2.24,0L38.34,31.36a1.6,1.6,0,0,1,.45,1.11V45.8A1.57,1.57,0,0,1,37.22,47.38ZM18.55,44.22H35.64V33.12l-8.48-8.55-8.5,8.56Z"/><path class="a" d="M81.67,109.73H61.41a1.59,1.59,0,0,1-1.58-1.59L60,94.81a1.59,1.59,0,0,1,.46-1.09L70.49,83.57a1.62,1.62,0,0,1,2.24,0L82.79,93.72a1.53,1.53,0,0,1,.46,1.11v13.32A1.58,1.58,0,0,1,81.67,109.73ZM63,106.58H80.1V95.48l-8.49-8.56-8.49,8.56Z"/><path class="a" d="M132.83,47.38H112.57a1.57,1.57,0,0,1-1.12-.47,1.6,1.6,0,0,1-.46-1.13l.14-13.33a1.59,1.59,0,0,1,.46-1.09l10.06-10.14a1.62,1.62,0,0,1,2.24,0L134,31.36a1.57,1.57,0,0,1,.46,1.11V45.8A1.58,1.58,0,0,1,132.83,47.38Zm-18.67-3.16h17.09V33.12l-8.48-8.55-8.49,8.56Z"/><path class="a" d="M61.41,60a1.57,1.57,0,0,1-1.58-1.57V28.09a1.58,1.58,0,0,1,1.58-1.58H83.63V1.58a1.58,1.58,0,1,1,3.16,0V28.09a1.58,1.58,0,0,1-1.58,1.58H63v28.8A1.57,1.57,0,0,1,61.41,60Z"/></svg>